<?xml version="1.0" encoding="UTF-8" standalone="no"?>
<!-- Created with Inkscape (http://www.inkscape.org/) -->

<svg
   xmlns:dc="http://purl.org/dc/elements/1.1/"
   xmlns:cc="http://creativecommons.org/ns#"
   xmlns:rdf="http://www.w3.org/1999/02/22-rdf-syntax-ns#"
   xmlns:svg="http://www.w3.org/2000/svg"
   xmlns="http://www.w3.org/2000/svg"
   xmlns:sodipodi="http://sodipodi.sourceforge.net/DTD/sodipodi-0.dtd"
   xmlns:inkscape="http://www.inkscape.org/namespaces/inkscape"
   width="3600"
   height="400"
   viewBox="0 0 952.50003 105.83333"
   version="1.1"
   id="svg8"
   inkscape:version="0.92.1 r15371"
   sodipodi:docname="grass_animation_2.svg">
  <defs
     id="defs2" />
  <sodipodi:namedview
     id="base"
     pagecolor="#ffffff"
     bordercolor="#000000"
     borderopacity="1"
     inkscape:pageopacity="0.0"
     inkscape:pageshadow="2"
     inkscape:zoom="0.1232967"
     inkscape:cx="2781.5978"
     inkscape:cy="139.30156"
     inkscape:document-units="mm"
     inkscape:current-layer="g3833"
     showgrid="false"
     inkscape:snap-nodes="false"
     showguides="true"
     inkscape:window-width="1680"
     inkscape:window-height="997"
     inkscape:window-x="561"
     inkscape:window-y="-8"
     inkscape:window-maximized="1"
     units="px">
    <inkscape:grid
       type="xygrid"
       id="grid3819" />
  </sodipodi:namedview>
  <metadata
     id="metadata5">
    <rdf:RDF>
      <cc:Work
         rdf:about="">
        <dc:format>image/svg+xml</dc:format>
        <dc:type
           rdf:resource="http://purl.org/dc/dcmitype/StillImage" />
        <dc:title></dc:title>
      </cc:Work>
    </rdf:RDF>
  </metadata>
  <g
     inkscape:label="Layer 1"
     inkscape:groupmode="layer"
     id="layer1"
     style="display:inline;opacity:1"
     transform="translate(0,-191.16673)">
    <g
       id="g3833">
      <g
         id="g3844">
        <path
           style="opacity:1;fill:#000000;fill-rule:evenodd;stroke:#000000;stroke-width:0.26458332px;stroke-linecap:butt;stroke-linejoin:miter;stroke-opacity:1"
           d="m 80.887598,191.70514 c -12.66992,8.40346 -21.11725,31.11557 -17.7984,44.82827 0.0562,0.23224 0.11632,0.46189 0.17932,0.68885 -4.23731,-9.04433 -13.27668,-20.86712 -23.98872,-30.89786 7.09909,12.5202 17.41679,27.32064 16.73696,37.15846 l -2.47581,21.37854 c -0.16376,-1.01775 -0.3364,-2.07311 -0.52245,-3.1874 -3.89516,-19.23081 -8.93842,-31.26368 -14.2105,-41.8636 -8.26076,-13.74641 -23.49142,-19.55462 -38.72219001,-25.55658 13.10104001,11.16493 26.78253001,20.78051 31.55828001,38.33462 7.15415,32.75118 0.63838,45.27703 -3.48506,50.72661 -6.13102,7.74447 -10.9064,7.16349 -20.71605,13.55266 h 29.88604 17.35501 22.16092 13.57747 c -0.0736,-1.46559 -0.128,-2.77542 -0.17932,-3.9703 -0.35924,-8.36411 -0.57047,-11.09327 -6.2115,-22.15471 -7.06041,-11.2992 -6.03841,-7.71696 -13.24106,-21.29224 -6.60383,-14.82252 -2.47816,-43.99577 10.09706,-57.74532 z"
           id="path3790"
           inkscape:connector-curvature="0" />
        <path
           style="display:inline;opacity:1;fill:#000000;fill-rule:evenodd;stroke:#000000;stroke-width:0.26458332px;stroke-linecap:butt;stroke-linejoin:miter;stroke-opacity:1"
           d="m 185.51386,192.24163 c -12.66992,8.40346 -18.98017,30.79246 -15.66132,44.50516 0.0562,0.23224 0.14003,0.98349 0.20303,1.21045 -4.23731,-9.04433 -14.55698,-21.03308 -25.26902,-31.06381 7.09909,12.52019 18.55483,27.5103 17.875,37.34812 l -2.08019,21.55868 c -0.16376,-1.01775 -0.87288,-2.87782 -1.05893,-3.99211 -3.89516,-19.23081 -8.40195,-30.32485 -13.67403,-40.92477 -8.26076,-13.7464 -24.69849,-17.14046 -39.92926,-23.14242 13.10104,11.16493 26.64841,17.69576 31.42416,35.24987 7.15415,32.75118 0.23602,45.94762 -3.88742,51.3972 -6.13102,7.74447 -8.89461,6.09054 -18.70426,12.47971 h 29.88604 17.35502 22.16092 13.57746 c -0.0736,-1.46559 -0.19505,-2.77542 -0.24638,-3.9703 -0.35924,-8.36411 -1.174,-10.75797 -6.81504,-21.81941 -7.0604,-11.2992 -5.83722,-7.58284 -13.03987,-21.15812 -6.60383,-14.82252 -4.69113,-43.9287 7.88409,-57.67825 z"
           id="path3811"
           inkscape:connector-curvature="0"
           sodipodi:nodetypes="ccccccccccccccccsccc" />
        <path
           sodipodi:nodetypes="ccccccccccccccccsccc"
           inkscape:connector-curvature="0"
           id="path3815"
           d="m 290.60954,192.44281 c -12.66992,8.40345 -18.17546,30.59128 -14.85661,44.30398 0.0562,0.23224 0.14003,0.98349 0.20303,1.21045 -4.23731,-9.04433 -14.82522,-20.02719 -25.53726,-30.05792 7.09909,12.52019 18.48777,26.57147 17.80794,36.40929 l -1.74489,21.49162 c -0.16376,-1.01775 -1.27524,-2.81076 -1.46129,-3.92505 -3.89516,-19.23081 -8.26783,-29.92249 -13.53991,-40.52241 -8.26076,-13.7464 -24.49731,-16.33575 -39.72808,-22.3377 13.10104,11.16492 26.04487,16.48868 30.82062,34.04279 7.15415,32.75118 0.50426,45.88056 -3.61918,51.33014 -6.13102,7.74447 -8.49225,6.09054 -18.3019,12.47971 h 29.88604 17.35502 22.16092 13.57746 c -0.0736,-1.46559 -0.19505,-2.77542 -0.24638,-3.9703 -0.35924,-8.36411 -1.37518,-10.42267 -7.01622,-21.48411 -7.0604,-11.2992 -5.97134,-7.6499 -13.17399,-21.22518 -6.60383,-14.82252 -5.16054,-43.99576 7.41468,-57.74531 z"
           style="display:inline;opacity:1;fill:#000000;fill-rule:evenodd;stroke:#000000;stroke-width:0.26458332px;stroke-linecap:butt;stroke-linejoin:miter;stroke-opacity:1" />
        <path
           inkscape:connector-curvature="0"
           id="path3821"
           d="m 504.22098,191.70514 c -12.66992,8.40346 -21.11726,31.11557 -17.79841,44.82827 0.0562,0.23224 0.11632,0.46189 0.17932,0.68885 -4.23731,-9.04433 -13.27669,-20.86712 -23.98873,-30.89786 7.09909,12.5202 17.4168,27.32064 16.73697,37.15846 l -2.47581,21.37854 c -0.16376,-1.01775 -0.3364,-2.07311 -0.52245,-3.1874 -3.89517,-19.23081 -8.93843,-31.26368 -14.21051,-41.8636 -8.26077,-13.74641 -23.49144,-19.55462 -38.72222,-25.55658 13.10105,11.16493 26.78255,20.78051 31.5583,38.33462 7.15416,32.75118 0.63838,45.27703 -3.48506,50.72661 -6.13103,7.74447 -10.90641,7.16349 -20.71607,13.55266 h 29.88606 17.35503 22.16093 13.57748 c -0.0736,-1.46559 -0.128,-2.77542 -0.17932,-3.9703 -0.35924,-8.36411 -0.57047,-11.09327 -6.2115,-22.15471 -7.06042,-11.2992 -6.03842,-7.71696 -13.24107,-21.29224 -6.60384,-14.82252 -2.47816,-43.99577 10.09706,-57.74532 z"
           style="opacity:1;fill:#000000;fill-rule:evenodd;stroke:#000000;stroke-width:0.26458332px;stroke-linecap:butt;stroke-linejoin:miter;stroke-opacity:1" />
        <path
           style="display:inline;opacity:1;fill:#000000;fill-rule:evenodd;stroke:#000000;stroke-width:0.26458332px;stroke-linecap:butt;stroke-linejoin:miter;stroke-opacity:1"
           d="m 609.48529,191.13612 c -12.66992,8.40346 -21.97079,31.68459 -18.65194,45.39729 0.0562,0.23224 -0.35786,0.46189 -0.29486,0.68885 -4.23731,-9.04433 -12.13865,-20.86712 -22.85069,-30.89786 7.09909,12.5202 17.22713,27.41548 16.5473,37.2533 l -3.42418,21.2837 c -0.16376,-1.01775 -0.3364,-2.07311 -0.52245,-3.1874 -3.89517,-19.23081 -8.0849,-31.26368 -13.35698,-41.8636 -8.26077,-13.74641 -22.44824,-19.83913 -37.67902,-25.84109 13.10105,11.16493 25.73935,20.87535 30.5151,38.42946 7.15416,32.75118 0.54354,45.65637 -3.5799,51.10595 -6.13103,7.74447 -11.6651,6.97382 -21.47476,13.36299 h 29.88606 17.35503 22.16093 13.57748 c -0.0736,-1.46559 -0.128,-2.77542 -0.17932,-3.9703 -0.35924,-8.36411 0.18822,-11.56745 -5.45281,-22.62889 -7.06042,-11.2992 -6.03842,-7.14794 -13.24107,-20.72322 -6.60384,-14.82252 -1.90914,-44.65963 10.66608,-58.40918 z"
           id="path3823"
           inkscape:connector-curvature="0"
           sodipodi:nodetypes="ccccccccccccccccsccc" />
        <path
           sodipodi:nodetypes="ccccccccccccccccsccc"
           inkscape:connector-curvature="0"
           id="path3827"
           d="m 397.18053,192.24163 c -12.66992,8.40346 -18.98017,30.79246 -15.66132,44.50516 0.0562,0.23224 0.14003,0.98349 0.20303,1.21045 -4.23731,-9.04433 -14.55698,-21.03308 -25.26902,-31.06381 7.09909,12.52019 18.55483,27.5103 17.875,37.34812 l -2.08019,21.55868 c -0.16376,-1.01775 -0.87288,-2.87782 -1.05893,-3.99211 -3.89516,-19.23081 -8.40195,-30.32485 -13.67403,-40.92477 -8.26076,-13.7464 -24.69849,-17.14046 -39.92926,-23.14242 13.10104,11.16493 26.64841,17.69576 31.42416,35.24987 7.15415,32.75118 0.23602,45.94762 -3.88742,51.3972 -6.13102,7.74447 -8.89461,6.09054 -18.70426,12.47971 h 29.88604 17.35502 22.16092 13.57746 c -0.0736,-1.46559 -0.19505,-2.77542 -0.24638,-3.9703 -0.35924,-8.36411 -1.174,-10.75797 -6.81504,-21.81941 -7.0604,-11.2992 -5.83722,-7.58284 -13.03987,-21.15812 -6.60383,-14.82252 -4.69113,-43.9287 7.88409,-57.67825 z"
           style="display:inline;opacity:1;fill:#000000;fill-rule:evenodd;stroke:#000000;stroke-width:0.26458332px;stroke-linecap:butt;stroke-linejoin:miter;stroke-opacity:1" />
        <path
           sodipodi:nodetypes="ccccccccccccccccsccc"
           inkscape:connector-curvature="0"
           id="path3829"
           d="m 714.74961,191.98965 c -12.66992,8.40346 -23.01399,30.83106 -19.69514,44.54376 0.0562,0.23224 -0.35786,0.46189 -0.29486,0.68885 -4.23731,-9.04433 -10.62126,-20.86712 -21.3333,-30.89786 7.09909,12.5202 16.3736,27.69999 15.69377,37.53781 l -4.08804,20.99919 c -0.16376,-1.01775 -0.3364,-2.07311 -0.52245,-3.1874 -3.89517,-19.23081 -7.13653,-31.35852 -12.40861,-41.95844 -8.26077,-13.74641 -21.78439,-20.12364 -37.01517,-26.1256 13.10105,11.16493 24.98066,21.34954 29.75641,38.90365 7.15416,32.75118 0.54354,45.65637 -3.5799,51.10595 -6.13103,7.74447 -12.51863,6.87898 -22.32829,13.26815 h 29.88606 17.35503 22.16093 13.57748 c -0.0736,-1.46559 -0.128,-2.77542 -0.17932,-3.9703 -0.35924,-8.36411 1.04175,-11.56745 -4.59928,-22.62889 -7.06042,-11.2992 -5.84875,-7.14794 -13.0514,-20.72322 -6.60384,-14.82252 -1.90914,-43.8061 10.66608,-57.55565 z"
           style="display:inline;opacity:1;fill:#000000;fill-rule:evenodd;stroke:#000000;stroke-width:0.26458332px;stroke-linecap:butt;stroke-linejoin:miter;stroke-opacity:1" />
        <path
           sodipodi:nodetypes="ccccccccccccccccsccc"
           inkscape:connector-curvature="0"
           id="path3833"
           d="m 821.15196,191.13612 c -12.66992,8.40346 -21.97079,31.68459 -18.65194,45.39729 0.0562,0.23224 -0.35786,0.46189 -0.29486,0.68885 -4.23731,-9.04433 -12.13865,-20.86712 -22.85069,-30.89786 7.09909,12.5202 17.22713,27.41548 16.5473,37.2533 l -3.42418,21.2837 c -0.16376,-1.01775 -0.3364,-2.07311 -0.52245,-3.1874 -3.89517,-19.23081 -8.0849,-31.26368 -13.35698,-41.8636 -8.26077,-13.74641 -22.44824,-19.83913 -37.67902,-25.84109 13.10105,11.16493 25.73935,20.87535 30.5151,38.42946 7.15416,32.75118 0.54354,45.65637 -3.5799,51.10595 -6.13103,7.74447 -11.6651,6.97382 -21.47476,13.36299 h 29.88606 17.35503 22.16093 13.57748 c -0.0736,-1.46559 -0.128,-2.77542 -0.17932,-3.9703 -0.35924,-8.36411 0.18822,-11.56745 -5.45281,-22.62889 -7.06042,-11.2992 -6.03842,-7.14794 -13.24107,-20.72322 -6.60384,-14.82252 -1.90914,-44.65963 10.66608,-58.40918 z"
           style="display:inline;opacity:1;fill:#000000;fill-rule:evenodd;stroke:#000000;stroke-width:0.26458332px;stroke-linecap:butt;stroke-linejoin:miter;stroke-opacity:1" />
        <path
           style="opacity:1;fill:#000000;fill-rule:evenodd;stroke:#000000;stroke-width:0.26458332px;stroke-linecap:butt;stroke-linejoin:miter;stroke-opacity:1"
           d="m 927.55431,191.70514 c -12.66992,8.40346 -21.11726,31.11557 -17.79841,44.82827 0.0562,0.23224 0.11632,0.46189 0.17932,0.68885 -4.23731,-9.04433 -13.27669,-20.86712 -23.98873,-30.89786 7.09909,12.5202 17.4168,27.32064 16.73697,37.15846 l -2.47581,21.37854 c -0.16376,-1.01775 -0.3364,-2.07311 -0.52245,-3.1874 -3.89517,-19.23081 -8.93843,-31.26368 -14.21051,-41.8636 -8.26077,-13.74641 -23.49144,-19.55462 -38.72222,-25.55658 13.10105,11.16493 26.78255,20.78051 31.5583,38.33462 7.15416,32.75118 0.63838,45.27703 -3.48506,50.72661 -6.13103,7.74447 -10.90641,7.16349 -20.71607,13.55266 h 29.88606 17.35503 22.16093 13.57748 c -0.0736,-1.46559 -0.128,-2.77542 -0.17932,-3.9703 -0.35924,-8.36411 -0.57047,-11.09327 -6.2115,-22.15471 -7.06042,-11.2992 -6.03842,-7.71696 -13.24107,-21.29224 -6.60384,-14.82252 -2.47816,-43.99577 10.09706,-57.74532 z"
           id="path3835"
           inkscape:connector-curvature="0" />
      </g>
    </g>
  </g>
</svg>
